<svg width="15" height="15" viewBox="0 0 15 15" fill="none" xmlns="http://www.w3.org/2000/svg">
<path d="M10.65 14.25H3.69853C3.24416 14.25 3.01699 14.25 2.91179 14.1601C2.82051 14.0822 2.77207 13.9652 2.78149 13.8456C2.79234 13.7077 2.95298 13.547 3.27427 13.2257L9.65145 6.84855C9.94845 6.55155 10.097 6.40297 10.2682 6.3474C10.4188 6.29842 10.5812 6.29842 10.7318 6.3474C10.903 6.40297 11.0515 6.55155 11.3485 6.84855L14.25 9.75V10.65M10.65 14.25C11.9102 14.25 12.5401 14.25 13.0215 14.0048C13.4449 13.7891 13.7891 13.4449 14.0048 13.0215C14.25 12.5401 14.25 11.9102 14.25 10.65M10.65 14.25H4.35C3.08988 14.25 2.45982 14.25 1.97852 14.0048C1.55516 13.7891 1.21095 13.4449 0.995235 13.0215C0.75 12.5401 0.75 11.9102 0.75 10.65V4.35C0.75 3.08988 0.75 2.45982 0.995235 1.97852C1.21095 1.55516 1.55516 1.21095 1.97852 0.995235C2.45982 0.75 3.08988 0.75 4.35 0.75H10.65C11.9102 0.75 12.5401 0.75 13.0215 0.995235C13.4449 1.21095 13.7891 1.55516 14.0048 1.97852C14.25 2.45982 14.25 3.08988 14.25 4.35V10.65M6.375 4.875C6.375 5.70343 5.70343 6.375 4.875 6.375C4.04657 6.375 3.375 5.70343 3.375 4.875C3.375 4.04657 4.04657 3.375 4.875 3.375C5.70343 3.375 6.375 4.04657 6.375 4.875Z" stroke="white" stroke-width="1.5" stroke-linecap="round" stroke-linejoin="round"/>
</svg>
